<svg width="22" height="22" viewBox="0 0 22 22" fill="none" xmlns="http://www.w3.org/2000/svg">
<path d="M11 5.60938C13.9531 5.60938 16.3906 8.04688 16.3906 11C16.3906 14 13.9531 16.3906 11 16.3906C8 16.3906 5.60938 14 5.60938 11C5.60938 8.04688 8 5.60938 11 5.60938ZM11 14.5156C12.9219 14.5156 14.4688 12.9688 14.4688 11C14.4688 9.07812 12.9219 7.53125 11 7.53125C9.03125 7.53125 7.48438 9.07812 7.48438 11C7.48438 12.9688 9.07812 14.5156 11 14.5156ZM17.8438 5.42188C17.8438 6.125 17.2812 6.6875 16.5781 6.6875C15.875 6.6875 15.3125 6.125 15.3125 5.42188C15.3125 4.71875 15.875 4.15625 16.5781 4.15625C17.2812 4.15625 17.8438 4.71875 17.8438 5.42188ZM21.4062 6.6875C21.5 8.42188 21.5 13.625 21.4062 15.3594C21.3125 17.0469 20.9375 18.5 19.7188 19.7656C18.5 20.9844 17 21.3594 15.3125 21.4531C13.5781 21.5469 8.375 21.5469 6.64062 21.4531C4.95312 21.3594 3.5 20.9844 2.23438 19.7656C1.01562 18.5 0.640625 17.0469 0.546875 15.3594C0.453125 13.625 0.453125 8.42188 0.546875 6.6875C0.640625 5 1.01562 3.5 2.23438 2.28125C3.5 1.0625 4.95312 0.6875 6.64062 0.59375C8.375 0.5 13.5781 0.5 15.3125 0.59375C17 0.6875 18.5 1.0625 19.7188 2.28125C20.9375 3.5 21.3125 5 21.4062 6.6875ZM19.1562 17.1875C19.7188 15.8281 19.5781 12.5469 19.5781 11C19.5781 9.5 19.7188 6.21875 19.1562 4.8125C18.7812 3.92188 18.0781 3.17188 17.1875 2.84375C15.7812 2.28125 12.5 2.42188 11 2.42188C9.45312 2.42188 6.17188 2.28125 4.8125 2.84375C3.875 3.21875 3.17188 3.92188 2.79688 4.8125C2.23438 6.21875 2.375 9.5 2.375 11C2.375 12.5469 2.23438 15.8281 2.79688 17.1875C3.17188 18.125 3.875 18.8281 4.8125 19.2031C6.17188 19.7656 9.45312 19.625 11 19.625C12.5 19.625 15.7812 19.7656 17.1875 19.2031C18.0781 18.8281 18.8281 18.125 19.1562 17.1875Z" fill="url(#paint0_linear_4_69)"/>
<path d="M11 5.60938C13.9531 5.60938 16.3906 8.04688 16.3906 11C16.3906 14 13.9531 16.3906 11 16.3906C8 16.3906 5.60938 14 5.60938 11C5.60938 8.04688 8 5.60938 11 5.60938ZM11 14.5156C12.9219 14.5156 14.4688 12.9688 14.4688 11C14.4688 9.07812 12.9219 7.53125 11 7.53125C9.03125 7.53125 7.48438 9.07812 7.48438 11C7.48438 12.9688 9.07812 14.5156 11 14.5156ZM17.8438 5.42188C17.8438 6.125 17.2812 6.6875 16.5781 6.6875C15.875 6.6875 15.3125 6.125 15.3125 5.42188C15.3125 4.71875 15.875 4.15625 16.5781 4.15625C17.2812 4.15625 17.8438 4.71875 17.8438 5.42188ZM21.4062 6.6875C21.5 8.42188 21.5 13.625 21.4062 15.3594C21.3125 17.0469 20.9375 18.5 19.7188 19.7656C18.5 20.9844 17 21.3594 15.3125 21.4531C13.5781 21.5469 8.375 21.5469 6.64062 21.4531C4.95312 21.3594 3.5 20.9844 2.23438 19.7656C1.01562 18.5 0.640625 17.0469 0.546875 15.3594C0.453125 13.625 0.453125 8.42188 0.546875 6.6875C0.640625 5 1.01562 3.5 2.23438 2.28125C3.5 1.0625 4.95312 0.6875 6.64062 0.59375C8.375 0.5 13.5781 0.5 15.3125 0.59375C17 0.6875 18.5 1.0625 19.7188 2.28125C20.9375 3.5 21.3125 5 21.4062 6.6875ZM19.1562 17.1875C19.7188 15.8281 19.5781 12.5469 19.5781 11C19.5781 9.5 19.7188 6.21875 19.1562 4.8125C18.7812 3.92188 18.0781 3.17188 17.1875 2.84375C15.7812 2.28125 12.5 2.42188 11 2.42188C9.45312 2.42188 6.17188 2.28125 4.8125 2.84375C3.875 3.21875 3.17188 3.92188 2.79688 4.8125C2.23438 6.21875 2.375 9.5 2.375 11C2.375 12.5469 2.23438 15.8281 2.79688 17.1875C3.17188 18.125 3.875 18.8281 4.8125 19.2031C6.17188 19.7656 9.45312 19.625 11 19.625C12.5 19.625 15.7812 19.7656 17.1875 19.2031C18.0781 18.8281 18.8281 18.125 19.1562 17.1875Z" fill="black" fill-opacity="0.2"/>
<defs>
<linearGradient id="paint0_linear_4_69" x1="11" y1="1" x2="11" y2="25" gradientUnits="userSpaceOnUse">
<stop stop-color="#BC9CFF"/>
<stop offset="1" stop-color="#8BA4F9"/>
</linearGradient>
</defs>
</svg>
